<svg xmlns="http://www.w3.org/2000/svg" xmlns:xlink="http://www.w3.org/1999/xlink" version="1.1" width="1000" height="1000" viewBox="0 0 1000 1000" xml:space="preserve">
<desc>Created with Fabric.js 3.5.0</desc>
<defs>
</defs>
<rect x="0" y="0" width="100%" height="100%" fill="rgba(255,255,255,0)"/>
<g transform="matrix(0.9091 0 0 0.9091 500.0045 500.0045)" id="734073">
<g style="" vector-effect="non-scaling-stroke">
		<g transform="matrix(1 0 0 1 -450 -450)">
<rect style="stroke: none; stroke-width: 1; stroke-dasharray: none; stroke-linecap: butt; stroke-dashoffset: 0; stroke-linejoin: miter; stroke-miterlimit: 4; is-custom-font: none; font-file-url: none; fill: rgb(0,0,0); fill-opacity: 0; fill-rule: nonzero; opacity: 1;" x="-50" y="-50" rx="0" ry="0" width="100" height="100"/>
</g>
		<g transform="matrix(1.7756 0 0 1.7756 0 0)" id="266273">
<path style="stroke: none; stroke-width: 1; stroke-dasharray: none; stroke-linecap: butt; stroke-dashoffset: 0; stroke-linejoin: miter; stroke-miterlimit: 4; is-custom-font: none; font-file-url: none; fill: none; fill-rule: nonzero; opacity: 1;" vector-effect="non-scaling-stroke" transform=" translate(-256, -256)" d="M 179.9 388 l -76.16 -132 l 76.16 132 z M 179.9 388 h 152.21 l 76.15 -132 l -76.15 -132 H 179.9 l -76.16 132 l 76.16 132 z M 103.74 256 l 76.16 -132 l -76.16 132 z" stroke-linecap="round"/>
</g>
		<g transform="matrix(1.7756 0 0 1.7756 159.7152 0)" id="266273">
<path style="stroke: none; stroke-width: 1; stroke-dasharray: none; stroke-linecap: butt; stroke-dashoffset: 0; stroke-linejoin: miter; stroke-miterlimit: 4; is-custom-font: none; font-file-url: none; fill: rgb(255,255,255); fill-rule: nonzero; opacity: 1;" vector-effect="non-scaling-stroke" transform=" translate(-345.95, -256)" d="M 496 256 L 376 48 H 239.74 l -43.84 76 h 136.21 l 76.15 132 l -76.15 132 H 195.9 l 43.84 76 H 376 l 120 -208 z" stroke-linecap="round"/>
</g>
		<g transform="matrix(1.7756 0 0 1.7756 -241.7124 0)" id="266273">
<path style="stroke: none; stroke-width: 1; stroke-dasharray: none; stroke-linecap: butt; stroke-dashoffset: 0; stroke-linejoin: miter; stroke-miterlimit: 4; is-custom-font: none; font-file-url: none; fill: rgb(255,255,255); fill-rule: nonzero; opacity: 1;" vector-effect="non-scaling-stroke" transform=" translate(-119.87, -256)" d="M 179.9 388 l -76.16 -132 l 76.16 -132 l 43.84 -76 H 136 L 16 256 l 120 208 h 87.74 l -43.84 -76 z" stroke-linecap="round"/>
</g>
</g>
</g>
</svg>