<?xml version="1.0" encoding="utf-8"?>
<svg viewBox="0 0 500 500" xmlns="http://www.w3.org/2000/svg">
  <path d="M 239.859 182.646 C 239.617 181.68 238.877 180.917 237.919 180.646 C 236.199 180.226 229.319 180.226 229.319 180.226 C 229.319 180.226 222.439 180.226 220.719 180.686 C 219.761 180.957 219.021 181.72 218.779 182.686 C 218.464 184.432 218.31 186.203 218.319 187.976 C 218.308 189.763 218.461 191.547 218.779 193.306 C 219.045 194.241 219.781 194.97 220.719 195.226 C 222.439 195.686 229.319 195.686 229.319 195.686 C 229.319 195.686 236.199 195.686 237.919 195.226 C 238.877 194.955 239.617 194.192 239.859 193.226 C 240.171 191.494 240.325 189.737 240.319 187.976 C 240.33 186.189 240.176 184.405 239.859 182.646 L 239.859 182.646 Z" style="fill: rgb(255, 255, 255);"/>
  <polygon points="227.069 191.246 232.819 187.976 227.069 184.706 227.069 191.246"/>
</svg>